<svg height="20" viewBox="0 0 20 20" width="20" xmlns="http://www.w3.org/2000/svg"><path d="m26.2325 28-7.86625-7.86625c-.4875-.4875-.4875-1.28 0-1.7675s1.28-.4875 1.7675 0l7.86625 7.86625 7.86625-7.86625c.4875-.4875 1.28-.4875 1.7675 0s.4875 1.28 0 1.7675l-7.86625 7.86625 7.86625 7.86625c.4875.4875.4875 1.28 0 1.7675s-1.28.4875-1.7675 0l-7.86625-7.86625-7.86625 7.86625c-.4875.4875-1.28.4875-1.7675 0s-.4875-1.28 0-1.7675z" fill="#c8cacc" fill-rule="evenodd" transform="translate(-18 -18)"/></svg>