<svg xmlns="http://www.w3.org/2000/svg" width="28" height="28" viewBox="0 0 28 28">
  <path fill="none" d="M20.9489364,28.4790032 L19.6676043,27.197671 L25.1038362,21.7614391 L26.3851683,23.0427712 L20.9489364,28.4790032 Z M9.7011791,6.35878203 L10.9825113,7.64011418 L5.54627934,13.0763461 L4.2649472,11.7950139 L9.7011791,6.35878203 Z M3.46882947,9.71756406 L9.3580807,15.6068153 L8.07674855,16.8881474 L0.906165168,9.71756406 L7.62372922,3 L14.7943126,10.1705834 L13.5129805,11.4519155 L7.62372922,5.5626643 L3.46882947,9.71756406 Z M18.5739189,16.5128539 L19.855251,15.2315218 L26.5987237,21.9749945 L27.7183177,29.8121525 L19.8811596,28.6925585 L13.137687,21.9490858 L14.4190191,20.6677537 L20.7353811,26.9841156 L25.5827641,27.6765989 L24.8902808,22.8292159 L18.5739189,16.5128539 Z M2.56263972,22.4018 L7.62321251,27.4623728 L24.4623181,10.6232672 L19.4017453,5.56269441 L2.56263972,22.4018 Z M19.4017453,3.00005469 L27.0249578,10.6232672 L7.62321251,30.0250125 L-5.22248911e-13,22.4018 L19.4017453,3.00005469 Z M9.06051303,13.3417187 L10.3418452,12.0603865 L14.3412933,16.0598346 L13.0599611,17.3411668 L9.06051303,13.3417187 Z M6.34239707,16.0598346 L7.62372922,14.7785025 L10.7171387,17.8719119 L9.43580653,19.1532441 L6.34239707,16.0598346 Z M14.4967449,7.90548675 L15.7780771,6.6241546 L19.7775252,10.6236027 L18.496193,11.9049349 L14.4967449,7.90548675 Z M11.778629,10.6236027 L13.0599611,9.34227056 L16.1533706,12.43568 L14.8720384,13.7170122 L11.778629,10.6236027 Z M3.62428112,18.7779506 L4.90561327,17.4966184 L8.90506137,21.4960665 L7.62372922,22.7773987 L3.62428112,18.7779506 Z" transform="translate(0 -3)"/>
</svg>
