<svg height="24" viewBox="0 0 24 24" width="24" xmlns="http://www.w3.org/2000/svg"><path d="m11.4319258 8.63608696c-1.77140063-3.14869566-3.66672101-5.71695653-3.80498939-5.90608696-2.85798139 1.35130435-4.99070597 3.98478261-5.65726393 7.15695652.26871026.00521739 4.54198594.05608696 9.46225332-1.25086956zm1.2757215 3.44347824c.1330507-.0430435.2687102-.0834782.4030653-.1226087-.2569704-.5830435-.5374205-1.1673913-.8309147-1.7426087-5.27767805 1.5808696-10.34143147 1.466087-10.52013683 1.4608696-.00391325.1095652-.00913093.2165217-.00913093.3260869 0 2.6334783.99527147 5.036087 2.62970811 6.8504348-.00652209-.0078261 2.79797812-4.9826087 8.32740905-6.7721739zm-7.00733732 7.9995652v-.0052174c-.07565628-.0586956-.15653024-.1121739-.23218653-.1760869.13826838.1108696.23218653.1813043.23218653.1813043zm3.82455565-18.02347823c.00782651-.00260869.01826186-.00260869.01826186-.00260869-.00782652 0-.01826186.00260869-.01826186.00260869zm9.24311097 2.25391305c-1.8053155-1.58869565-4.1728355-2.55782609-6.7686287-2.55782609-.8335235 0-1.6409587.10173913-2.41578343.28826087.15653024.20869565 2.08054783 2.76391304 3.83238213 5.97913043 3.8636882-1.44652173 5.3233328-3.66782608 5.35203-3.70956521zm-6.7686287 19.69043478c-6.62644701 0-11.99934766-5.3726087-11.99934766-11.9986957-.00130442-6.6286956 5.37159623-12.0013043 11.99934766-12.0013043 6.6290559 0 12.0006521 5.3726087 12.0006521 12.0013043 0 6.626087-5.3715962 11.9986957-12.0006521 11.9986957zm1.7427034-10.3226087c-6.01467465 2.096087-8.00130434 6.3104348-8.04174132 6.3965217 1.74009455 1.3578261 3.92108263 2.1730435 6.29773352 2.1730435 1.4192075 0 2.7718897-.2882608 4.0006522-.81-.1513126-.8986956-.747432-4.0382608-2.190119-7.7830435-.0208707.0078261-.0430459.0156522-.0665254.0234783zm.4617642-4.12956521c.2400131.48652171.4669819.98347821.682211 1.48565221.0769607.1760869.1487037.3547826.2217512.5295652 3.5388879-.446087 7.0242947.3104348 7.1390836.333913-.024784-2.42999998-.8948313-4.65913041-2.3309963-6.4069565-.0234795.03-1.6683515 2.40391304-5.7120495 4.05782609zm1.5274743 3.63260871c1.3448557 3.6991304 1.8901027 6.7069565 1.9944562 7.3186956 2.3009946-1.5534782 3.9367357-4.0173913 4.3919778-6.873913-.2034893-.0652174-3.0732105-.9743478-6.386434-.4447826z" fill="#fff" transform=""/></svg>