<svg height="24" viewBox="0 0 24 24" width="24" xmlns="http://www.w3.org/2000/svg"><path d="m11.6658321 119.999998c-3.13610252 0-6.6311467-.825986-9.06791311-3.6315-4.16928713-4.801965-2.8715331-12.29207.72879336-16.4771392 3.18410689-3.7073836 9.38757845-4.958646 14.42749005-2.9119694 4.9509943 2.0128293 6.4598584 6.6532006 6.2220187 10.3278286-.3616692 5.576088-3.0728241 6.615531-4.6564222 6.738911-1.5255645.214458-3.0154832-.579134-3.6897891-1.965334-.6579305.704564-1.4647075 1.253276-2.3614869 1.606114-1.4031154.587154-2.9941.521778-4.34439392-.178517-2.87535163-1.53569-2.91080939-4.994132-2.06691469-7.490105.49913617-1.478368 2.68933476-6.1291119 9.90253431-3.930668l.8788069.26805-.1145558.912242c-.2602054 2.074519-.5793253 5.323871-.475134 6.052682.279298 1.954961.8395306 2.64392 2.1012814 2.548383 1.562869-.121742 2.4547681-1.703835 2.6478765-4.703153.0916446-1.413948.0120011-6.18152-4.8642593-8.1621399-3.6336022-1.4772758-9.09737031-1.0148764-11.95417481 2.3109049-2.61841924 3.048451-4.33184733 9.477822-.7347939 13.6214 3.67778803 4.234748 10.80425241 2.778764 13.01027061 1.934762l.7789797 2.039579c-2.0455773.72222-4.199071 1.090705-6.3682138 1.089669zm1.5557775-16.312816c-1.9676971-.131127-3.75913704 1.132362-4.29748062 3.030982-.20620052.610345-1.12646578 3.712297 1.02718405 4.863655.79024947.395365 1.71466297.421141 2.52568357.070424 1.0719633-.430275 1.9295171-1.268662 2.384398-2.331104.0195111-1.799313.1479398-3.595789.3845803-5.379555-.6629333-.161526-1.3421084-.246878-2.0243653-.254402z" fill="#fff" transform="translate(0 -96)"/></svg>