<svg height="24" viewBox="0 0 24 24" width="24" xmlns="http://www.w3.org/2000/svg"><path d="m12 48c-2.17708304 0-4.18489582.5498942-6.0234374 1.6496817-1.83854158 1.0997884-3.2942709 2.5919767-4.36718795 4.4765649-1.07291612 1.8845881-1.60937465 3.9426869-1.60937465 6.1742954 0 2.6800657.76302053 5.0905232 2.28906251 7.2313734 1.52604198 2.1408493 3.49739596 3.6223598 5.91406193 4.4445314.28125067.0533873.48958373.0160163.62500013-.1121148.13541733-.1281301.20312506-.2882936.20312506-.4804897 0-.0427104-.002604-.3336733-.007812-.8728897-.00520893-.5392164-.00781293-1.0116985-.00781293-1.4174454l-.3593744.0640651c-.22916693.0427103-.51822959.0613958-.86718799.0560574-.34895839-.0053385-.71093772-.0427104-1.08593705-.1121139-.37500026-.0694044-.72395866-.229568-1.04687519-.4804907-.32291653-.2509218-.55208346-.5792566-.68749986-.9850035l-.15625026-.3683759c-.10416654-.2455843-.2682288-.5178617-.49218773-.8168332-.223958-.2989715-.45052093-.5018445-.67968693-.6086199l-.10937546-.0800823c-.07291667-.0533872-.14062533-.1174532-.20312507-.1921961-.06249973-.0747429-.10937453-.1494857-.1406244-.2242286-.0312508-.0747429-.00520893-.1361387.07812467-.1841875s.23437493-.0720737.45312493-.0720737l.3124996.0480488c.20833399.0427104.46614586.1708414.77343745.3843922.30729253.2135508.5598964.4911676.75781253.8328495.23958386.4377794.52864653.7714527.86718799 1.0010207.33854146.2295671.67968786.3443511 1.02343732.3443511.3437504 0 .64062506-.0266941.89062492-.0800823.24999987-.0533872.4843748-.1334685.7031248-.2402449.10416746-.7153953.35937533-1.2652895.76562545-1.6496817-.59375026-.064065-1.12760385-.1601636-1.60156264-.2882937-.47395787-.128131-.96354159-.3363434-1.46875025-.6246371-.50520773-.2882936-.92447879-.6459918-1.25781226-1.0730943-.33333346-.4271016-.60677119-.9876737-.82031226-1.6817142-.21354199-.6940416-.32031252-1.4948576-.32031252-2.4024499 0-1.2706289.41145812-2.3704173 1.23437438-3.2993643-.38541626-.9716574-.34374946-2.060768.1250004-3.2673309.29166666-.0960986.73437466-.0240249 1.32812492.21622s1.02864625.445788 1.30468798.6166285c.27604173.1708414.49739573.3149877.664062.432441.96875052-.2776159 1.96874993-.4164248 3.00000023-.4164248s2.0312497.1388089 3.0000002.4164248l.5937494-.3843913c.4062501-.2562621.8854169-.4911676 1.4375003-.7047193.5520835-.2135508.9739586-.2722775 1.2656252-.1761789.4687499 1.2065629.5104167 2.2956735.1249995 3.2673309.8229172.928947 1.2343753 2.0287354 1.2343753 3.2993643 0 .9075923-.1067705 1.7110775-.3203125 2.4104575s-.4895837 1.2599511-.8281252 1.6817152c-.3385415.4217632-.7604165.7767921-1.2656252 1.0650857-.5052077.2882937-.9947914.4965061-1.4687493.6246371-.4739588.1281301-1.0078133.2242287-1.6015627.2882937.5416666.4804898.8125003 1.2385964.8125003 2.2743188 0 .6513312-.0026049 1.3693966-.0078129 2.1541963-.005208.7848007-.007813 1.1932168-.007813 1.2252494 0 .1921961.0677087.3523596.2031251.4804897.1354173.1281311.3437504.1655021.6250001.1121148 2.4166669-.8221716 4.3880209-2.3036821 5.9140629-4.4445314 1.526041-2.1408502 2.2890625-4.5513077 2.2890625-7.2313734 0-2.2316085-.5364585-4.2897073-1.6093756-6.1742954-1.0729161-1.8845882-2.5286454-3.3767765-4.367187-4.4765649-1.8385416-1.0997875-3.8463544-1.6496817-6.0234374-1.6496817zm-7.45312485 17.6660128c.03124987-.0747429-.00520893-.1388089-.10937547-.1921961-.10416653-.0320326-.17187519-.0213557-.20312506.0320325-.03124987.0747429.00520893.1388079.10937547.1921961.09374959.064065.16145826.0533872.20312506-.0320325zm.48437479.5445548c.07291667-.0533872.06249974-.1388079-.03124986-.2562612-.10416653-.0960975-.18750013-.1121138-.24999987-.0480488-.07291666.0533873-.06250066.138808.03124987.2562612.10416653.1067754.18750013.1227917.24999986.0480488zm.46874987.7207346c.09375053-.0747428.09375053-.1761788 0-.3043099-.0833336-.1388079-.1718752-.1708404-.2656248-.0960976-.09375053.0533873-.09375053.1494858 0 .2882937.0937496.1388079.1822912.1761799.2656248.1121138zm.65624999.6726859c.0833336-.0854197.06249973-.1868567-.06249973-.3043099-.1250004-.1281311-.22916694-.1441473-.31250053-.0480488-.0937496.0854207-.07291667.1868567.06250066.3043099.12499947.1281311.229166.1441474.3124996.0480488zm.89062492.4004085c.03124987-.1174532-.03645786-.202873-.20312506-.2562612-.15624933-.0427103-.25520787-.0053384-.29687467.1121148-.0416668.1174523.02604187.1975346.20312507.2402449.15625026.0640651.25520786.0320326.29687466-.0960985zm.98437546.0800823c0-.1388089-.0885416-.1975355-.26562573-.1761799-.16666627 0-.24999987.0587266-.24999987.1761799 0 .1388079.0885416.1975345.26562573.1761789.16666627 0 .24999987-.0587267.24999987-.1761789zm.90624985-.1601636c-.02083386-.1174532-.11458346-.165502-.28124973-.1441473-.16666719.0320325-.23958386.1121148-.21874999.2402449.02083293.128131.11458253.1708414.28124973.128131.16666626-.0427103.23958293-.1174532.21874999-.2242286z" fill="#fff" transform="translate(0 -48)"/></svg>