<svg height="32" viewBox="0 0 26 32" width="26" xmlns="http://www.w3.org/2000/svg"><path d="m18.033866 19-1.7235105-2.4469165c-.1154649-.1639288-.1770532-.3563199-.1770532-.5530835v-11c0-.55228475.4750251-1 1.0609982-1h2.1219964v-2h-10.60998186v2h2.12199636c.5859731 0 1.0609982.44771525 1.0609982 1v11c0 .1967636-.0615883.3891547-.1770532.5530835l-1.72356009 2.4469165zm1.4086302 1.9998722c-.0051066.0000851-.0102229.0001278-.0153488.0001278h-10.83168292c-.00515567 0-.01030174-.0000432-.01543792-.0001293l-5.2612564 7.4693393c-.47709068.6495119-.0000323 1.53079.82525268 1.53079h19.62846646c.8587139 0 1.3892295-.9074356.9197519-1.5469165zm-1.1871975-5.301581 8.1932319 11.6324988c1.447097 1.97008-.1308998 4.66921-2.6760413 4.66921h-19.62846646c-2.5504215 0-4.013867-2.7034478-2.58154207-4.6530835l8.20483245-11.6486326v-9.6982839h-2.12199637c-.58597312 0-1.06099819-.44771525-1.06099819-1v-4c0-.55228475.47502507-1 1.06099819-1h12.73197825c.5859731 0 1.0609982.44771525 1.0609982 1v4c0 .55228475-.4750251 1-1.0609982 1h-2.1219964z" fill="none" transform="translate(-1)"/></svg>