<svg xmlns="http://www.w3.org/2000/svg" width="24" height="22" viewBox="0 0 24 22">
  <path fill="#FFF" fill-rule="evenodd" d="M37.7255556,42.464 L37.7255556,42.408 C37.7255556,41.176 38.7615556,40.42 40.1055556,40.42 C41.4495556,40.42 42.4855556,41.176 42.4855556,42.408 L42.4855556,42.464 C42.4855556,43.696 41.4495556,44.48 40.1055556,44.48 C38.7615556,44.48 37.7255556,43.696 37.7255556,42.464 Z M37.9775556,59.04 L37.9775556,47.952 C37.9775556,46.776 38.9295556,45.824 40.1055556,45.824 C41.2815556,45.824 42.2335556,46.776 42.2335556,47.952 L42.2335556,59.04 C42.2335556,60.216 41.2815556,61.168 40.1055556,61.168 C38.9295556,61.168 37.9775556,60.216 37.9775556,59.04 Z M44.682,59.04 L44.682,42.52 C44.682,41.344 45.634,40.392 46.81,40.392 C47.986,40.392 48.938,41.344 48.938,42.52 L48.938,48.148 C49.974,46.748 51.402,45.712 53.614,45.712 C57.114,45.712 60.446,48.456 60.446,53.468 L60.446,53.524 C60.446,58.536 57.17,61.28 53.614,61.28 C51.346,61.28 49.946,60.244 48.938,59.04 L48.938,59.068 C48.938,60.216 47.986,61.168 46.81,61.168 C45.634,61.168 44.682,60.216 44.682,59.04 Z M52.522,57.668 C54.51,57.668 56.19,56.044 56.19,53.524 L56.19,53.468 C56.19,50.976 54.51,49.324 52.522,49.324 C50.534,49.324 48.882,50.976 48.882,53.468 L48.882,53.524 C48.882,56.016 50.534,57.668 52.522,57.668 Z" transform="translate(-37 -40)"/>
</svg>
