<svg height="32" viewBox="0 0 26 32" width="26" xmlns="http://www.w3.org/2000/svg"><path d="m3 10v20h22v-20zm-1-2h24c.5522847 0 1 .44771525 1 1v22c0 .5522847-.4477153 1-1 1h-24c-.55228475 0-1-.4477153-1-1v-22c0-.55228475.44771525-1 1-1zm3-2c-.55228475 0-1-.44771525-1-1s.44771525-1 1-1h18c.5522847 0 1 .44771525 1 1s-.4477153 1-1 1zm4-4c-.55228475 0-1-.44771525-1-1s.44771525-1 1-1h10c.5522847 0 1 .44771525 1 1s-.4477153 1-1 1zm1 15v-1c0-.5522847-.44771525-1-1-1s-1 .4477153-1 1v2c0 .5522847.44771525 1 1 1h10c.5522847 0 1-.4477153 1-1v-2c0-.5522847-.4477153-1-1-1s-1 .4477153-1 1v1z" fill="none" transform="translate(-1)"/></svg>