<svg height="28" viewBox="0 0 26 28" width="26" xmlns="http://www.w3.org/2000/svg"><path d="m15.7891687 20.5004689c-.5710277.1519296-1.1706792.2328644-1.7891687.2328644-.6186255 0-1.2184048-.0809704-1.7895455-.2329647-.5894262 2.0558239-1.8079981 3.6725296-3.89847363 4.3586531-3.62582345 1.190613-5.02658313 2.3490269-5.27163322 5.1409783h21.91930475c-.2450499-2.7919513-1.645807-3.9503644-5.2716053-5.1409691-2.0914512-.6867025-3.3101668-2.3034703-3.8988784-4.358562zm1.856889-.8001229c.4062361 1.5992475 1.255089 2.7952688 2.6659232 3.258499 4.7656674 1.5649039 6.6880191 3.4919547 6.6880191 8.041155 0 .5522847-.4477153 1-1 1h-24c-.55228475 0-1-.4477153-1-1 0-4.5492003 1.92235168-6.4762511 6.68815317-8.0411991 1.40964151-.4626641 2.25851195-1.6586746 2.66551283-3.2586254-2.01191775-1.2418813-3.353666-3.4804365-3.353666-6.0335088v-2.6c0-3.90035975 3.1315124-7.0666667 7-7.0666667s7 3.16630695 7 7.0666667v2.6c0 2.5531891-1.3418711 4.7918325-3.3539423 6.0336793zm-3.6460577-.9670127c2.7589409 0 5-2.2659597 5-5.0666666v-2.6c0-2.80070699-2.2410591-5.0666667-5-5.0666667s-5 2.26595971-5 5.0666667v2.6c0 2.8007069 2.2410591 5.0666666 5 5.0666666z" fill="none" transform="translate(-1 -4)"/></svg>