<svg xmlns="http://www.w3.org/2000/svg" width="28" height="27" viewBox="0 0 28 27">
  <path fill="none" d="M1.85779817,15.1284404 L1.85779817,27.1422018 L18.206422,27.1422018 L18.206422,15.1284404 L1.85779817,15.1284404 Z M20.0642202,13.2706422 L20.0642202,29 L0,29 L0,13.2706422 L20.0642202,13.2706422 Z M26.0091743,16.6451912 L19.5864344,20.21338 L18.6842078,18.5893723 L27.8669725,13.4878363 L27.8669725,28.7828059 L18.6842078,23.6812699 L19.5864344,22.0572622 L26.0091743,25.625451 L26.0091743,16.6451912 Z M5.69724771,11.6605505 C3.02956036,11.6605505 0.866972477,9.49796258 0.866972477,6.83027523 C0.866972477,4.16258788 3.02956036,2 5.69724771,2 C8.36493505,2 10.5275229,4.16258788 10.5275229,6.83027523 C10.5275229,9.49796258 8.36493505,11.6605505 5.69724771,11.6605505 Z M5.69724771,9.80275229 C7.33890146,9.80275229 8.66972477,8.47192898 8.66972477,6.83027523 C8.66972477,5.18862148 7.33890146,3.85779817 5.69724771,3.85779817 C4.05559395,3.85779817 2.72477064,5.18862148 2.72477064,6.83027523 C2.72477064,8.47192898 4.05559395,9.80275229 5.69724771,9.80275229 Z M15.6674312,11.6605505 C13.7179674,11.6605505 12.1376147,10.0801978 12.1376147,8.13073394 C12.1376147,6.18127011 13.7179674,4.60091743 15.6674312,4.60091743 C17.616895,4.60091743 19.1972477,6.18127011 19.1972477,8.13073394 C19.1972477,10.0801978 17.616895,11.6605505 15.6674312,11.6605505 Z M15.6674312,9.80275229 C16.5908614,9.80275229 17.3394495,9.05416418 17.3394495,8.13073394 C17.3394495,7.20730371 16.5908614,6.4587156 15.6674312,6.4587156 C14.744001,6.4587156 13.9954128,7.20730371 13.9954128,8.13073394 C13.9954128,9.05416418 14.744001,9.80275229 15.6674312,9.80275229 Z" transform="translate(0 -2)"/>
</svg>
