<svg height="24" viewBox="0 0 24 24" width="24" xmlns="http://www.w3.org/2000/svg"><path d="m11.7431286 0h1.8898675c3.4664305.3000269 6.7518806 2.09110378 8.5964387 4.8480043 2.665277 3.7650387 2.2971377 9.1440069-.9399137 12.5160224-.8982084.9720393-2.7363304.7260411-3.2854501-.4527896-.9079911-1.8393681-1.6252191-3.7561933-2.4778606-5.616121-.8075895 1.7968145-1.525075 3.6330747-2.3617552 5.4208046-.3647926.9543485-1.602307 1.5692244-2.6294928 1.128149-.77875623-.2701438-1.14380624-1.011007-1.4378028-1.6739349-1.14998477-2.6911576-2.32906027-5.3729916-3.49526377-8.06104136.9432604-.00310784 1.8865208 0 2.83312792-.00310784.9432604 2.1630624 1.88008485 4.3321015 2.83003865 6.4920561.7105346-1.6230141 1.4053653-3.2520047 2.0996812-4.88099535.313562-.73201781.723664-1.55392416 1.6056537-1.80303015.9723511-.33899453 2.0255384.30313474 2.3939351 1.13699435.9334777 1.96200855 1.7122339 3.98713035 2.6199676 5.95822335.9175164-1.4523214 1.4957268-3.1111952 1.3955826-4.8121445-.0967975-3.73802434-3.3598503-7.14613862-7.3496565-7.66204144-4.74565013-.6660358-9.57857248 2.35503183-10.94506435 6.58505245-1.34074786 3.74400099.18406964 8.13013119 3.57609995 10.48803179 2.45211663 1.8329133 5.8217496 2.4241217 8.8389472 1.6108217-.0030893.8369674-.006436 1.674174-.0030893 2.5082726-.5653384.0927574-1.1275875.1917304-1.6929258.2727735h-1.9318303c-3.2532701-.2878346-6.39970258-1.6650895-8.56425866-3.9598769-1.92565169-1.952924-3.00767228-4.5180942-3.30810484-7.1339463v-1.7191182c.26490583-2.65195087 1.36649187-5.25298084 3.31119412-7.23291928 2.13546535-2.26514329 5.23375654-3.62112142 8.43193448-3.95413932" fill="#fff" fill-rule="evenodd" transform=""/></svg>