<svg xmlns="http://www.w3.org/2000/svg" style="display:none"><symbol id="apperture" viewBox="0 0 16 16"><path d="M8 0C3.6 0 0 3.6 0 8s3.6 8 8 8 8-3.6 8-8-3.6-8-8-8zm1.1 9.8H7L5.9 8l1-1.8H9L10.1 8zM2.4 5.9l2.3 3.9H2.3c-.4-1.2-.4-2.6.1-3.9zm8.9.3h2.4c.4 1.3.4 2.6-.1 3.9zm1.3-2H8.1l1.2-2.1c1.3.3 2.5 1 3.3 2.1zM7 2.1L4.7 6 3.5 4C4.4 3 5.6 2.3 7 2.1zm-3.6 9.7h4.5l-1.2 2.1c-1.3-.3-2.5-1-3.3-2.1zM9 13.9l2.2-3.9 1.2 2c-.8 1-2 1.7-3.4 1.9z"/></symbol><symbol id="arrow-right" viewBox="0 0 16 16"><path d="M9.3 1.3L7.9 2.7 12.2 7H0v2h12.2l-4.3 4.3 1.4 1.4L16 8z" class="nc-icon-wrapper"/></symbol><symbol id="badge" viewBox="0 0 24 24"><path d="M15 7v2H9V7H2v15h20V7zm0-2h9v19H0V5h9V3a3 3 0 1 1 6 0zm-2 2V3a1 1 0 1 0-2 0v4zm1 7v-2h6v2zm0 4v-2h6v2zM4 19a3 3 0 0 1 3-3h2a3 3 0 0 1 3 3zm4-4a2 2 0 1 1 0-4 2 2 0 0 1 0 4z"/></symbol><symbol id="chevron-left" viewBox="0 0 11 20"><path d="M10.465 18.626a.81.81 0 0 1 0 1.138.79.79 0 0 1-1.127 0L.234 10.57a.81.81 0 0 1 0-1.138L9.338.235a.792.792 0 0 1 1.127 0 .81.81 0 0 1 0 1.139L2.162 10z"/></symbol><symbol id="chevron-right" viewBox="0 0 11 20"><path d="M8.537 10.002L.234 1.374a.81.81 0 0 1 0-1.139.792.792 0 0 1 1.126 0l9.105 9.196a.81.81 0 0 1 0 1.138L1.36 19.764a.79.79 0 0 1-1.126 0 .81.81 0 0 1 0-1.138z"/></symbol><symbol id="close" viewBox="0 0 20 20"><path d="M8.233 10L.366 2.134A1.25 1.25 0 0 1 2.134.366L10 8.233 17.866.365a1.25 1.25 0 0 1 1.768 1.768L11.767 10l7.867 7.866a1.25 1.25 0 0 1-1.768 1.768L10 11.767l-7.866 7.867a1.25 1.25 0 0 1-1.768-1.768z" fill-rule="evenodd"/></symbol><symbol id="code" viewBox="0 0 16 14"><g><path d="M12.7 10.7l-1.4-1.4L13.6 7l-2.3-2.3 1.4-1.4 3 3c.4.4.4 1 0 1.4zM3.3 10.7l-3-3c-.4-.4-.4-1 0-1.4l3-3 1.4 1.4L2.4 7l2.3 2.3zM6 14c-.1 0-.2 0-.3-.1-.5-.2-.8-.7-.6-1.3l4-12c.2-.5.7-.8 1.3-.6.5.2.8.7.6 1.3l-4 12c-.2.4-.6.7-1 .7z"/></g></symbol><symbol id="design" viewBox="0 0 28 28"><path d="M20.949 25.479l-1.281-1.281 5.436-5.437 1.281 1.282-5.436 5.436zM9.7 3.359l1.282 1.281-5.437 5.436-1.281-1.281L9.7 3.359zM3.47 6.718l5.89 5.889-1.282 1.281-7.17-7.17L7.623 0l7.17 7.17-1.281 1.282-5.89-5.89L3.47 6.719zm15.105 6.795l1.281-1.281 6.744 6.743 1.12 7.837-7.838-1.12-6.743-6.743 1.281-1.281 6.316 6.316 4.848.693-.693-4.848-6.316-6.316zM2.563 19.402l5.06 5.06 16.84-16.839-5.061-5.06-16.84 16.839zM19.402 0l7.623 7.623L7.623 27.025 0 19.402 19.402 0zM9.06 10.342l1.28-1.282 4 4-1.281 1.281-4-4zM6.342 13.06l1.282-1.281 3.093 3.093-1.281 1.281-3.094-3.093zm8.155-8.155l1.281-1.28 4 3.999-1.282 1.28-4-3.999zm-2.718 2.719l1.281-1.282 3.093 3.094-1.281 1.281-3.093-3.093zm-8.155 8.154l1.282-1.281 4 4-1.282 1.28-4-3.999z"/></symbol><symbol id="dribbble" viewBox="0 0 24 24"><path d="M11.432 8.636C9.66 5.487 7.765 2.92 7.627 2.73A10.274 10.274 0 0 0 1.97 9.887c.268.005 4.542.056 9.462-1.25zm1.276 3.444c.133-.043.268-.084.403-.123a34.197 34.197 0 0 0-.831-1.743C7.002 11.795 1.938 11.68 1.76 11.675c-.004.11-.01.217-.01.326 0 2.634.996 5.036 2.63 6.85-.006-.007 2.798-4.982 8.328-6.771zm-7.008 8v-.006c-.075-.059-.156-.112-.232-.176.138.11.232.181.232.181zM9.525 2.055c.008-.003.018-.003.018-.003-.008 0-.018.003-.018.003zm9.243 2.254a10.213 10.213 0 0 0-6.769-2.558c-.833 0-1.64.101-2.415.288.156.209 2.08 2.764 3.832 5.98 3.864-1.447 5.323-3.669 5.352-3.71zM11.999 24C5.373 24 0 18.627 0 12.001-.001 5.373 5.372 0 12 0s12 5.373 12 12.001C24 18.627 18.628 24 12 24zm1.743-10.323c-6.015 2.096-8.001 6.31-8.042 6.397a10.198 10.198 0 0 0 6.298 2.173c1.42 0 2.772-.288 4-.81-.15-.899-.747-4.038-2.19-7.783a1.91 1.91 0 0 1-.066.023zm.462-4.13c.24.487.467.984.682 1.486.077.177.149.355.222.53 3.539-.446 7.024.31 7.139.334a10.225 10.225 0 0 0-2.331-6.407c-.024.03-1.668 2.404-5.712 4.058zm1.527 3.633c1.345 3.7 1.89 6.707 1.995 7.32a10.25 10.25 0 0 0 4.392-6.875c-.204-.065-3.073-.974-6.387-.445z"/></symbol><symbol id="email" viewBox="0 0 24 24"><path d="M11.666 24c-3.136 0-6.631-.826-9.068-3.632-4.17-4.801-2.872-12.292.729-16.477C6.51.184 12.714-1.067 17.754.98c4.951 2.013 6.46 6.654 6.222 10.328-.361 5.576-3.073 6.616-4.656 6.74a3.553 3.553 0 0 1-3.69-1.966 6.474 6.474 0 0 1-2.361 1.606 5.132 5.132 0 0 1-4.345-.179c-2.875-1.535-2.91-4.994-2.067-7.49.5-1.478 2.69-6.129 9.903-3.93l.879.268-.115.912c-.26 2.074-.58 5.324-.475 6.053.28 1.955.84 2.644 2.101 2.548 1.563-.122 2.455-1.704 2.648-4.703.092-1.414.012-6.182-4.864-8.162C13.3 1.526 7.836 1.989 4.98 5.314 2.36 8.364.648 14.793 4.245 18.937c3.678 4.235 10.804 2.779 13.01 1.935l.779 2.04A19.1 19.1 0 0 1 11.666 24zm1.556-16.313a4.179 4.179 0 0 0-4.298 3.031c-.206.61-1.126 3.712 1.027 4.864.79.395 1.715.421 2.526.07a4.361 4.361 0 0 0 2.384-2.33c.02-1.8.148-3.597.385-5.38a8.97 8.97 0 0 0-2.024-.255z"/></symbol><symbol id="external" viewBox="0 0 16 16"><g class="nc-icon-wrapper"><path data-color="color-2" d="M16 0h-6l2.293 2.293-6.271 6.271 1.414 1.414 6.271-6.271L16 6z"/><path d="M13 16H1a1 1 0 0 1-1-1V3a1 1 0 0 1 1-1h6v2H2v10h10V9h2v6a1 1 0 0 1-1 1z"/></g></symbol><symbol id="github" viewBox="0 0 24 24"><path d="M12 0C9.823 0 7.815.55 5.977 1.65a12.1 12.1 0 0 0-4.368 4.476C.536 8.011 0 10.07 0 12.301c0 2.68.763 5.09 2.29 7.23 1.525 2.142 3.496 3.623 5.913 4.445.281.054.49.016.625-.112a.634.634 0 0 0 .203-.48c0-.043-.002-.334-.008-.873-.005-.54-.007-1.012-.007-1.417l-.36.064c-.229.042-.518.061-.867.056a6.515 6.515 0 0 1-1.086-.112 2.403 2.403 0 0 1-1.047-.481 2.03 2.03 0 0 1-.687-.985l-.157-.368a4.025 4.025 0 0 0-.492-.817c-.224-.3-.45-.502-.68-.609l-.109-.08a1.154 1.154 0 0 1-.203-.192.885.885 0 0 1-.14-.224c-.032-.075-.006-.136.078-.185s.234-.072.453-.072l.312.048c.209.043.466.171.774.385.307.213.56.491.757.833.24.437.53.771.868 1 .338.23.68.345 1.023.345.344 0 .64-.027.89-.08.25-.053.485-.133.704-.24.104-.716.36-1.266.766-1.65a10.465 10.465 0 0 1-1.602-.288 6.296 6.296 0 0 1-1.469-.625 4.235 4.235 0 0 1-1.258-1.073c-.333-.427-.606-.988-.82-1.682-.213-.694-.32-1.495-.32-2.402 0-1.27.411-2.37 1.234-3.3-.385-.971-.344-2.06.125-3.267.292-.096.734-.024 1.328.216s1.029.446 1.305.617c.276.17.497.315.664.432.969-.277 1.969-.416 3-.416s2.031.139 3 .416l.594-.384a8.328 8.328 0 0 1 1.437-.705c.552-.213.974-.272 1.266-.176.469 1.207.51 2.296.125 3.268.823.928 1.234 2.028 1.234 3.299 0 .907-.107 1.711-.32 2.41s-.49 1.26-.828 1.682c-.339.422-.76.777-1.266 1.065a6.296 6.296 0 0 1-1.469.625c-.474.128-1.007.224-1.601.288.542.48.812 1.239.812 2.274 0 .652-.002 1.37-.007 2.155l-.008 1.225c0 .192.067.352.203.48.135.128.344.166.625.112 2.417-.822 4.388-2.303 5.914-4.444C23.237 17.392 24 14.98 24 12.3c0-2.232-.536-4.29-1.61-6.175a12.1 12.1 0 0 0-4.367-4.476C16.185.55 14.177 0 12 0zM4.547 17.666c.031-.075-.005-.139-.11-.192-.104-.032-.171-.022-.203.032-.03.075.006.139.11.192.093.064.161.053.203-.032zm.484.545c.073-.054.063-.14-.031-.257-.104-.096-.188-.112-.25-.048-.073.054-.063.14.031.257.104.106.188.122.25.048zm.469.72c.094-.074.094-.176 0-.304-.083-.139-.172-.17-.266-.096-.093.053-.093.15 0 .288.094.139.183.176.266.112zm.656.673c.084-.085.063-.187-.062-.304-.125-.128-.23-.144-.313-.048-.094.085-.073.186.063.304.125.128.229.144.312.048zm.89.4c.032-.117-.036-.202-.202-.256-.156-.043-.255-.005-.297.112-.042.118.026.198.203.24.156.065.255.033.297-.096zm.985.08c0-.138-.088-.197-.265-.176-.167 0-.25.059-.25.176 0 .14.088.198.265.177.167 0 .25-.06.25-.177zm.907-.16c-.021-.117-.115-.165-.282-.144-.166.032-.24.112-.218.24.02.129.114.171.28.129.167-.043.24-.118.22-.225z"/></symbol><symbol id="lab" viewBox="0 0 26 32"><path d="M17.034 19l-1.724-2.447a.96.96 0 0 1-.177-.553V5c0-.552.475-1 1.061-1h2.122V2H7.706v2h2.122c.586 0 1.061.448 1.061 1v11a.96.96 0 0 1-.177.553L8.99 19zm1.408 2H7.58l-5.261 7.47c-.477.649 0 1.53.825 1.53h19.628c.86 0 1.39-.907.92-1.547zm-1.187-5.302l8.194 11.633C26.896 29.3 25.318 32 22.772 32H3.144C.594 32-.87 29.297.562 27.347l8.205-11.649V6H6.645c-.586 0-1.06-.448-1.06-1V1c0-.552.474-1 1.06-1h12.732c.586 0 1.061.448 1.061 1v4c0 .552-.475 1-1.06 1h-2.123z"/></symbol><symbol id="linkedin" viewBox="0 -49.2857 25.7143 25.7143"><path d="M3.968-27.757h3.867v-11.618H3.968zm4.118-15.2c-.011-.581-.212-1.06-.603-1.44-.39-.38-.91-.57-1.557-.57-.647 0-1.174.19-1.582.57-.407.38-.61.859-.61 1.44 0 .569.197 1.046.594 1.43.396.386.912.578 1.548.578h.017c.658 0 1.188-.192 1.59-.577.402-.385.603-.862.603-1.432zm9.793 15.2h3.868v-6.663c0-1.718-.408-3.019-1.222-3.9-.815-.882-1.892-1.323-3.231-1.323-1.518 0-2.685.653-3.5 1.959h.034v-1.691H9.961c.033.737.033 4.61 0 11.618h3.867v-6.495c0-.424.04-.737.117-.938.168-.39.419-.722.754-.996.334-.273.747-.41 1.238-.41 1.295 0 1.942.876 1.942 2.628zm7.835-16.707v16.071c0 1.328-.471 2.464-1.414 3.407-.943.943-2.079 1.415-3.407 1.415H4.82c-1.328 0-2.463-.472-3.406-1.415C.472-25.93 0-27.065 0-28.393v-16.071c0-1.328.472-2.464 1.415-3.407.943-.943 2.078-1.415 3.406-1.415h16.072c1.328 0 2.464.472 3.407 1.415.943.943 1.414 2.079 1.414 3.407z"/></symbol><symbol id="loading" viewBox="0 0 48 48"><g class="nc-icon-wrapper"><g class="nc-loop_dots-07-48"><circle data-color="color-2" cx="24" cy="25" r="5" transform="matrix(.8372 0 0 .8372 3.907 4.07)" opacity=".837"/><circle cx="6" cy="25" r="5" transform="matrix(.5628 0 0 .5628 2.623 10.93)" opacity=".563"/><circle cx="42" cy="25" r="5" transform="matrix(.4 0 0 .4 25.2 15)" opacity=".4"/></g><script>!function(){function t(t){this.element=t,this.dots=[this.element.getElementsByTagName("circle")[1],this.element.getElementsByTagName("circle")[0],this.element.getElementsByTagName("circle")[2]],this.animationId,this.start=null,this.init()}if(!window.requestAnimationFrame){var e=null;window.requestAnimationFrame=function(t,i){var n=(new Date).getTime();e||(e=n);var a=Math.max(0,16-(n-e)),s=window.setTimeout(function(){t(n+a)},a);return e=n+a,s}}t.prototype.init=function(){var t=this;this.animationId=window.requestAnimationFrame(t.triggerAnimation.bind(t))},t.prototype.reset=function(){var t=this;window.cancelAnimationFrame(t.animationId)},t.prototype.triggerAnimation=function(t){var e=this;this.start||(this.start=t);var i=t-this.start,n=Math.min(i/250,4),a=(n=4==n?0:n)%1,s=Math.ceil(n);1e3>i||(this.start=this.start+1e3);var r=[],o=[6,24,42],m=[25,25,25];switch(r[0]=r[1]=r[2]=.4,s){case 1:r[0]=1-3*a/5,r[1]=.4+3*a/5;break;case 2:r[1]=1-3*a/5,r[2]=.4+3*a/5;break;case 3:r[1]=.4+3*a/5,r[2]=1-3*a/5;break;case 4:r[0]=.4+3*a/5,r[1]=1-3*a/5;break;default:r[0]=1}for(var c=0;3>c;c++)this.dots[c].setAttribute("style","opacity:"+r[c]+";"),this.dots[c].setAttribute("transform","translate("+(1-r[c])*o[c]+" "+(1-r[c])*m[c]+") scale("+r[c]+")");if(document.documentElement.contains(this.element))window.requestAnimationFrame(e.triggerAnimation.bind(e))};var i=document.getElementsByClassName("nc-loop_dots-07-48"),n=[];if(i)for(var a=0;i.length>a;a++)!function(e){n.push(new t(i[e]))}(a);document.addEventListener("visibilitychange",function(){"hidden"==document.visibilityState?n.forEach(function(t){t.reset()}):n.forEach(function(t){t.init()})})}();</script></g></symbol><symbol id="logo" viewBox="0 0 24 22"><path fill-rule="evenodd" d="M.726 2.464v-.056C.726 1.176 1.762.42 3.106.42c1.344 0 2.38.756 2.38 1.988v.056c0 1.232-1.036 2.016-2.38 2.016-1.344 0-2.38-.784-2.38-2.016zM.978 19.04V7.952a2.127 2.127 0 1 1 4.256 0V19.04a2.127 2.127 0 1 1-4.256 0zm6.704 0V2.52a2.127 2.127 0 1 1 4.256 0v5.628c1.036-1.4 2.464-2.436 4.676-2.436 3.5 0 6.832 2.744 6.832 7.756v.056c0 5.012-3.276 7.756-6.832 7.756-2.268 0-3.668-1.036-4.676-2.24v.028c0 1.148-.952 2.1-2.128 2.1a2.127 2.127 0 0 1-2.128-2.128zm7.84-1.372c1.988 0 3.668-1.624 3.668-4.144v-.056c0-2.492-1.68-4.144-3.668-4.144-1.988 0-3.64 1.652-3.64 4.144v.056c0 2.492 1.652 4.144 3.64 4.144z"/></symbol><symbol id="menu-bold" viewBox="0 0 24 24"><title>menu bold</title><g class="nc-icon-wrapper"><path data-color="color-2" d="M23 10H1c-.6 0-1 .4-1 1v2c0 .6.4 1 1 1h22c.6 0 1-.4 1-1v-2c0-.6-.4-1-1-1z"/><path d="M23 2H1c-.6 0-1 .4-1 1v2c0 .6.4 1 1 1h22c.6 0 1-.4 1-1V3c0-.6-.4-1-1-1zM23 18H1c-.6 0-1 .4-1 1v2c0 .6.4 1 1 1h22c.6 0 1-.4 1-1v-2c0-.6-.4-1-1-1z"/></g></symbol><symbol id="menu" viewBox="0 0 24 24"><title>menu 34</title><g class="nc-icon-wrapper"><path data-color="color-2" d="M23 13H1c-.6 0-1-.4-1-1s.4-1 1-1h22c.6 0 1 .4 1 1s-.4 1-1 1z"/><path d="M23 6H1c-.6 0-1-.4-1-1s.4-1 1-1h22c.6 0 1 .4 1 1s-.4 1-1 1zM23 20H1c-.6 0-1-.4-1-1s.4-1 1-1h22c.6 0 1 .4 1 1s-.4 1-1 1z"/></g></symbol><symbol id="pencil" viewBox="0 0 16 16"><path d="M14 0v5l-2-1.5V0h-2v3.6l-2 2-2-2V0H4v3.5L2 5V0H0v7c0 .2.1.5.2.7l7 8c.2.2.5.3.8.3s.6-.1.8-.3l7-8c.1-.2.2-.5.2-.7V0zM8.7 7.7l2.4-2.4 2.4 1.8L9.3 12H6.7L2.5 7.2l2.4-1.8 2.4 2.4c.4.3 1 .3 1.4-.1z"/></symbol><symbol id="plyr-airplay" viewBox="0 0 18 18"><path d="M16 1H2a1 1 0 0 0-1 1v10a1 1 0 0 0 1 1h3v-2H3V3h12v8h-2v2h3a1 1 0 0 0 1-1V2a1 1 0 0 0-1-1z"/><path d="M4 17h10l-5-6z"/></symbol><symbol id="plyr-captions-off" viewBox="0 0 18 18"><path d="M1 1c-.6 0-1 .4-1 1v11c0 .6.4 1 1 1h4.6l2.7 2.7c.2.2.4.3.7.3.3 0 .5-.1.7-.3l2.7-2.7H17c.6 0 1-.4 1-1V2c0-.6-.4-1-1-1H1zm4.52 10.15c1.99 0 3.01-1.32 3.28-2.41l-1.29-.39c-.19.66-.78 1.45-1.99 1.45-1.14 0-2.2-.83-2.2-2.34 0-1.61 1.12-2.37 2.18-2.37 1.23 0 1.78.75 1.95 1.43l1.3-.41C8.47 4.96 7.46 3.76 5.5 3.76c-1.9 0-3.61 1.44-3.61 3.7 0 2.26 1.65 3.69 3.63 3.69zm7.57 0c1.99 0 3.01-1.32 3.28-2.41l-1.29-.39c-.19.66-.78 1.45-1.99 1.45-1.14 0-2.2-.83-2.2-2.34 0-1.61 1.12-2.37 2.18-2.37 1.23 0 1.78.75 1.95 1.43l1.3-.41c-.28-1.15-1.29-2.35-3.25-2.35-1.9 0-3.61 1.44-3.61 3.7 0 2.26 1.65 3.69 3.63 3.69z" fill-rule="evenodd" fill-opacity=".5"/></symbol><symbol id="plyr-captions-on" viewBox="0 0 18 18"><path d="M1 1c-.6 0-1 .4-1 1v11c0 .6.4 1 1 1h4.6l2.7 2.7c.2.2.4.3.7.3.3 0 .5-.1.7-.3l2.7-2.7H17c.6 0 1-.4 1-1V2c0-.6-.4-1-1-1H1zm4.52 10.15c1.99 0 3.01-1.32 3.28-2.41l-1.29-.39c-.19.66-.78 1.45-1.99 1.45-1.14 0-2.2-.83-2.2-2.34 0-1.61 1.12-2.37 2.18-2.37 1.23 0 1.78.75 1.95 1.43l1.3-.41C8.47 4.96 7.46 3.76 5.5 3.76c-1.9 0-3.61 1.44-3.61 3.7 0 2.26 1.65 3.69 3.63 3.69zm7.57 0c1.99 0 3.01-1.32 3.28-2.41l-1.29-.39c-.19.66-.78 1.45-1.99 1.45-1.14 0-2.2-.83-2.2-2.34 0-1.61 1.12-2.37 2.18-2.37 1.23 0 1.78.75 1.95 1.43l1.3-.41c-.28-1.15-1.29-2.35-3.25-2.35-1.9 0-3.61 1.44-3.61 3.7 0 2.26 1.65 3.69 3.63 3.69z" fill-rule="evenodd"/></symbol><symbol id="plyr-enter-fullscreen" viewBox="0 0 18 18"><path d="M10 3h3.6l-4 4L11 8.4l4-4V8h2V1h-7zM7 9.6l-4 4V10H1v7h7v-2H4.4l4-4z"/></symbol><symbol id="plyr-exit-fullscreen" viewBox="0 0 18 18"><path d="M1 12h3.6l-4 4L2 17.4l4-4V17h2v-7H1zM16 .6l-4 4V1h-2v7h7V6h-3.6l4-4z"/></symbol><symbol id="plyr-fast-forward" viewBox="0 0 18 18"><path d="M7.875 7.171L0 1v16l7.875-6.171V17L18 9 7.875 1z"/></symbol><symbol id="plyr-muted" viewBox="0 0 18 18"><path d="M12.4 12.5l2.1-2.1 2.1 2.1 1.4-1.4L15.9 9 18 6.9l-1.4-1.4-2.1 2.1-2.1-2.1L11 6.9 13.1 9 11 11.1zM3.786 6.008H.714C.286 6.008 0 6.31 0 6.76v4.512c0 .452.286.752.714.752h3.072l4.071 3.858c.5.3 1.143 0 1.143-.602V2.752c0-.601-.643-.977-1.143-.601L3.786 6.008z"/></symbol><symbol id="plyr-pause" viewBox="0 0 18 18"><path d="M6 1H3c-.6 0-1 .4-1 1v14c0 .6.4 1 1 1h3c.6 0 1-.4 1-1V2c0-.6-.4-1-1-1zM12 1c-.6 0-1 .4-1 1v14c0 .6.4 1 1 1h3c.6 0 1-.4 1-1V2c0-.6-.4-1-1-1h-3z"/></symbol><symbol id="plyr-pip" viewBox="0 0 18 18"><path d="M13.293 3.293L7.022 9.564l1.414 1.414 6.271-6.271L17 7V1h-6z"/><path d="M13 15H3V5h5V3H2a1 1 0 0 0-1 1v12a1 1 0 0 0 1 1h12a1 1 0 0 0 1-1v-6h-2v5z"/></symbol><symbol id="plyr-play" viewBox="0 0 18 18"><path d="M15.562 8.1L3.87.225C3.052-.337 2 .225 2 1.125v15.75c0 .9 1.052 1.462 1.87.9L15.563 9.9c.584-.45.584-1.35 0-1.8z"/></symbol><symbol id="plyr-restart" viewBox="0 0 18 18"><path d="M9.7 1.2l.7 6.4 2.1-2.1c1.9 1.9 1.9 5.1 0 7-.9 1-2.2 1.5-3.5 1.5-1.3 0-2.6-.5-3.5-1.5-1.9-1.9-1.9-5.1 0-7 .6-.6 1.4-1.1 2.3-1.3l-.6-1.9C6 2.6 4.9 3.2 4 4.1 1.3 6.8 1.3 11.2 4 14c1.3 1.3 3.1 2 4.9 2 1.9 0 3.6-.7 4.9-2 2.7-2.7 2.7-7.1 0-9.9L16 1.9l-6.3-.7z"/></symbol><symbol id="plyr-rewind" viewBox="0 0 18 18"><path d="M10.125 1L0 9l10.125 8v-6.171L18 17V1l-7.875 6.171z"/></symbol><symbol id="plyr-settings" viewBox="0 0 18 18"><path d="M16.135 7.784a2 2 0 0 1-1.23-2.969c.322-.536.225-.998-.094-1.316l-.31-.31c-.318-.318-.78-.415-1.316-.094a2 2 0 0 1-2.969-1.23C10.065 1.258 9.669 1 9.219 1h-.438c-.45 0-.845.258-.997.865a2 2 0 0 1-2.969 1.23c-.536-.322-.999-.225-1.317.093l-.31.31c-.318.318-.415.781-.093 1.317a2 2 0 0 1-1.23 2.969C1.26 7.935 1 8.33 1 8.781v.438c0 .45.258.845.865.997a2 2 0 0 1 1.23 2.969c-.322.536-.225.998.094 1.316l.31.31c.319.319.782.415 1.316.094a2 2 0 0 1 2.969 1.23c.151.607.547.865.997.865h.438c.45 0 .845-.258.997-.865a2 2 0 0 1 2.969-1.23c.535.321.997.225 1.316-.094l.31-.31c.318-.318.415-.781.094-1.316a2 2 0 0 1 1.23-2.969c.607-.151.865-.547.865-.997v-.438c0-.451-.26-.846-.865-.997zM9 12a3 3 0 1 1 0-6 3 3 0 0 1 0 6z"/></symbol><symbol id="plyr-volume" viewBox="0 0 18 18"><path d="M15.6 3.3c-.4-.4-1-.4-1.4 0-.4.4-.4 1 0 1.4C15.4 5.9 16 7.4 16 9c0 1.6-.6 3.1-1.8 4.3-.4.4-.4 1 0 1.4.2.2.5.3.7.3.3 0 .5-.1.7-.3C17.1 13.2 18 11.2 18 9s-.9-4.2-2.4-5.7z"/><path d="M11.282 5.282a.909.909 0 0 0 0 1.316c.735.735.995 1.458.995 2.402 0 .936-.425 1.917-.995 2.487a.909.909 0 0 0 0 1.316c.145.145.636.262 1.018.156a.725.725 0 0 0 .298-.156C13.773 11.733 14.13 10.16 14.13 9c0-.17-.002-.34-.011-.51-.053-.992-.319-2.005-1.522-3.208a.909.909 0 0 0-1.316 0zM3.786 6.008H.714C.286 6.008 0 6.31 0 6.76v4.512c0 .452.286.752.714.752h3.072l4.071 3.858c.5.3 1.143 0 1.143-.602V2.752c0-.601-.643-.977-1.143-.601L3.786 6.008z"/></symbol><symbol id="pointer" viewBox="0 0 16 16"><path d="M14.586 16l-3.793-3.793L9 15 7 7l8 2-2.793 1.793L16 14.586zM7 16H1a1 1 0 0 1-1-1V1a1 1 0 0 1 1-1h14a1 1 0 0 1 1 1v6h-2V2H2v12h5z"/></symbol><symbol id="portfolio" viewBox="0 0 26 32"><path d="M2 10v20h22V10zM1 8h24a1 1 0 0 1 1 1v22a1 1 0 0 1-1 1H1a1 1 0 0 1-1-1V9a1 1 0 0 1 1-1zm3-2a1 1 0 1 1 0-2h18a1 1 0 0 1 0 2zm4-4a1 1 0 1 1 0-2h10a1 1 0 0 1 0 2zm1 15v-1a1 1 0 0 0-2 0v2a1 1 0 0 0 1 1h10a1 1 0 0 0 1-1v-2a1 1 0 0 0-2 0v1z"/></symbol><symbol id="profile" viewBox="0 0 26 28"><path d="M14.79 16.5a6.95 6.95 0 0 1-1.79.233 6.95 6.95 0 0 1-1.79-.233c-.589 2.056-1.808 3.673-3.898 4.359C3.686 22.049 2.285 23.208 2.04 26h21.92c-.245-2.792-1.646-3.95-5.272-5.141-2.091-.687-3.31-2.303-3.899-4.359zm1.856-.8c.406 1.6 1.255 2.796 2.666 3.259C24.078 20.524 26 22.45 26 27a1 1 0 0 1-1 1H1a1 1 0 0 1-1-1c0-4.55 1.922-6.476 6.688-8.041 1.41-.463 2.259-1.659 2.666-3.259A7.078 7.078 0 0 1 6 9.667v-2.6C6 3.167 9.132 0 13 0s7 3.166 7 7.067v2.6a7.078 7.078 0 0 1-3.354 6.033zM13 14.733c2.759 0 5-2.266 5-5.066v-2.6C18 4.266 15.759 2 13 2S8 4.266 8 7.067v2.6c0 2.8 2.241 5.066 5 5.066z"/></symbol><symbol id="video" viewBox="0 0 28 27"><path d="M1.858 13.128v12.014h16.348V13.128H1.858zm18.206-1.857V27H0V11.27h20.064zm5.945 3.374l-6.423 3.568-.902-1.624 9.183-5.101v15.295l-9.183-5.102.902-1.624 6.423 3.568v-8.98zM5.697 9.661a4.83 4.83 0 1 1 0-9.661 4.83 4.83 0 0 1 0 9.66zm0-1.858a2.972 2.972 0 1 0 0-5.945 2.972 2.972 0 0 0 0 5.945zm9.97 1.858a3.53 3.53 0 1 1 0-7.06 3.53 3.53 0 0 1 0 7.06zm0-1.858a1.672 1.672 0 1 0 0-3.344 1.672 1.672 0 0 0 0 3.344z"/></symbol><symbol id="workplace" viewBox="0 0 24 24"><path d="M11.743 0h1.89c3.466.3 6.752 2.091 8.596 4.848 2.666 3.765 2.298 9.144-.94 12.516-.898.972-2.736.726-3.285-.453-.908-1.84-1.625-3.756-2.478-5.616-.807 1.797-1.525 3.633-2.362 5.42-.364.955-1.602 1.57-2.629 1.13-.779-.271-1.144-1.012-1.438-1.675-1.15-2.691-2.329-5.373-3.495-8.06.943-.004 1.886 0 2.833-.004.943 2.163 1.88 4.332 2.83 6.492.71-1.623 1.405-3.252 2.1-4.881.313-.732.723-1.554 1.605-1.803.973-.339 2.026.303 2.394 1.137.934 1.962 1.713 3.987 2.62 5.958.918-1.452 1.496-3.111 1.396-4.812-.097-3.738-3.36-7.146-7.35-7.662C9.285 1.869 4.452 4.89 3.085 9.12c-1.34 3.744.184 8.13 3.576 10.488 2.452 1.833 5.822 2.424 8.84 1.611-.004.837-.007 1.674-.004 2.508-.565.093-1.127.192-1.693.273h-1.932c-3.253-.288-6.4-1.665-8.564-3.96C1.382 18.087.3 15.522 0 12.906v-1.719c.265-2.652 1.366-5.253 3.311-7.233C5.447 1.69 8.545.333 11.743 0" fill-rule="evenodd"/></symbol><symbol id="workstream" viewBox="0 0 28 28"><path d="M1.867 8.836v17.297h17.297V8.836H1.867zM21.03 6.969V28H0V6.969h21.031zM22.65 5.35H3.484V3.484h21.032v21.032h-1.867V5.35zM6.969 1.867V0H28v21.031h-1.867V1.867H6.97z"/></symbol></svg>